<?xml version="1.0" encoding="UTF-8"?> <svg xmlns="http://www.w3.org/2000/svg" width="187" height="126" viewBox="0 0 187 126" fill="none"><g clip-path="url(#clip0_2002_2723)"><path d="M187 0H0V125.336H187V0Z" fill="#FFD92F"></path><path d="M77.0127 26.5866V26.4115L77.1001 26.5647L82.9418 36.3718L88.7835 26.5647L88.8708 26.4115V35.4962H91.2839V17.6551L82.9855 32.0484L82.9418 32.114L82.8981 32.0484L74.5996 17.6551V35.4962H77.0127V26.5757V26.5866ZM102.039 34.1937C103.12 35.2007 104.54 35.6823 106.407 35.6823C108.274 35.6823 109.693 35.1897 110.774 34.1937C111.866 33.1648 112.358 31.6762 112.358 29.3667V18.7059H109.956V29.3667C109.956 30.8444 109.715 31.6872 109.137 32.3001C108.492 32.9897 107.521 33.3728 106.396 33.3728C105.271 33.3728 104.31 32.9897 103.655 32.3001C103.077 31.6981 102.836 30.8444 102.836 29.3667V18.7059H100.423V29.3667C100.434 31.6762 100.925 33.1648 102.017 34.1937H102.039ZM87.2657 50.8089C87.2657 45.8068 83.728 42.4465 78.454 42.4465H74.6105V59.1712H78.3449C83.5969 59.1712 87.2767 55.7343 87.2767 50.8089H87.2657ZM77.0018 56.8617V44.767H78.454C82.3303 44.767 84.7434 47.0874 84.7434 50.8198C84.7434 52.6368 84.1429 54.1691 83.0182 55.2308C81.8826 56.3035 80.2775 56.8617 78.3558 56.8617H77.0236H77.0018ZM126.716 33.3837C125.581 33.3837 124.762 32.9459 122.916 31.3479L121.257 33.1758C122.764 34.8066 124.74 35.7042 126.826 35.7042C129.883 35.7042 132.012 33.723 132.012 30.8772C132.012 28.502 130.953 27.112 128.365 26.0941C128.234 26.0393 128.092 25.9846 127.95 25.9408C127.415 25.7329 126.815 25.503 126.072 25.1746C124.838 24.6164 124.281 23.894 124.281 22.8433C124.281 21.6174 125.242 20.7965 126.662 20.7965C127.535 20.7965 128.278 21.2124 129.512 22.3945L131.084 20.6104L131.117 20.5666C129.708 19.1656 128.223 18.487 126.585 18.487C123.681 18.487 121.737 20.2711 121.737 22.9199C121.737 24.9995 122.753 26.4334 124.915 27.4075C125.493 27.6811 125.952 27.8563 126.443 28.0423C126.596 28.0971 126.738 28.1518 126.891 28.2175C127.655 28.513 129.457 29.2135 129.457 30.9867C129.457 32.5081 128.42 33.4056 126.684 33.4056L126.716 33.3837ZM149.526 33.132H143.532V27.6155H149.526V25.3169H143.521V21.0263H149.515V18.7278H141.13V35.4524H149.526V33.1539V33.132ZM165.359 97.3051C165.228 97.2504 165.086 97.1957 164.955 97.1519C164.42 96.9439 163.819 96.7141 163.077 96.3857C161.843 95.8275 161.286 95.1051 161.286 94.0543C161.286 92.8284 162.247 92.0075 163.666 92.0075C164.54 92.0075 165.282 92.4235 166.516 93.6056L168.089 91.8215L168.121 91.7777C166.713 90.3767 165.228 89.698 163.59 89.698C160.686 89.698 158.742 91.4822 158.742 94.131C158.742 96.2106 159.757 97.6444 161.919 98.6186C162.498 98.8922 162.957 99.0674 163.448 99.2534C163.601 99.3082 163.743 99.3629 163.896 99.4285C164.66 99.7241 166.462 100.425 166.462 102.198C166.462 103.719 165.424 104.617 163.688 104.617C162.553 104.617 161.734 104.179 159.888 102.581L158.229 104.409C159.736 106.04 161.712 106.937 163.797 106.937C166.855 106.937 168.984 104.956 168.984 102.11C168.984 99.735 167.925 98.3449 165.337 97.327L165.359 97.3051ZM163.71 57.1244C162.575 57.1244 161.756 56.6866 159.91 55.0885L158.251 56.9164C159.757 58.5473 161.734 59.4448 163.819 59.4448C166.877 59.4448 169.006 57.4637 169.006 54.6179C169.006 52.2427 167.947 50.8526 165.359 49.8347C165.228 49.78 165.086 49.7253 164.944 49.6815C164.409 49.4735 163.808 49.2437 163.066 48.9153C161.832 48.3571 161.275 47.6347 161.275 46.5839C161.275 45.358 162.236 44.5371 163.656 44.5371C164.529 44.5371 165.272 44.9531 166.505 46.1352L168.078 44.3511L168.111 44.3073C166.702 42.9063 165.217 42.2276 163.579 42.2276C160.675 42.2276 158.731 44.0117 158.731 46.6605C158.731 48.7402 159.747 50.174 161.908 51.1482C162.487 51.4218 162.957 51.5969 163.437 51.783C163.59 51.8377 163.732 51.8925 163.885 51.9581C164.649 52.2537 166.451 52.9542 166.451 54.7273C166.451 56.2488 165.414 57.1463 163.677 57.1463L163.71 57.1244ZM168.351 33.132H162.356V27.6155H168.351V25.3169H162.345V21.0263H168.34V18.7278H159.954V35.4524H168.351V33.1539V33.132ZM149.483 12.653H146.655L143.586 16.8889H145.803L149.494 12.653H149.483ZM127.098 52.177L127.055 52.1114H127.131C130.09 51.8487 131.794 50.1084 131.794 47.3063C131.794 45.763 131.313 44.5481 130.374 43.7162C129.435 42.8734 128.07 42.4465 126.334 42.4465H121.912V59.1712H124.325V52.188L124.412 52.3193L128.987 59.1712H131.87L127.088 52.177H127.098ZM124.38 49.8457H124.336V44.767H126.061C128.201 44.767 129.282 45.6207 129.282 47.3173C129.282 49.0138 128.169 49.8566 126.061 49.8566H124.391L124.38 49.8457ZM106.407 41.5819L98.5015 59.1821H101.308L103.066 55.0448V55.0119H109.737V55.0448L111.517 59.1821H114.323L106.418 41.5819H106.407ZM108.722 52.8119H104.016L104.048 52.7462L106.363 47.2954L106.407 47.1969L106.451 47.2954L108.765 52.7462L108.798 52.8119H108.722ZM93.304 106.663H96.1102L97.8681 102.526V102.493H104.54V102.526L106.32 106.663H109.126L101.22 89.0632L93.3149 106.663H93.304ZM103.568 100.228L103.601 100.293H98.829L98.8618 100.228L101.177 94.7767L101.22 94.6782L101.264 94.7767L103.579 100.228H103.568ZM144.427 59.1821H146.829V44.7998V44.756H150.684V42.4684H140.573V44.756H144.427V59.1931V59.1821ZM87.2657 74.5605C87.2657 69.5584 83.728 66.1982 78.454 66.1982H74.6105V82.9228H78.3449C83.5969 82.9228 87.2767 79.4859 87.2767 74.5605H87.2657ZM77.0018 80.6133V68.5186H78.454C82.3303 68.5186 84.7434 70.839 84.7434 74.5714C84.7434 76.3884 84.1429 77.9207 83.0182 78.9825C81.8826 80.0551 80.2775 80.6133 78.3558 80.6133H77.0236H77.0018ZM125.406 100.95V101.059L125.33 100.983L112.86 88.8552V106.663H115.273V94.8534L115.35 94.93L127.819 107.047V89.9388H125.406V100.939V100.95ZM131.859 92.2374H135.714V92.2812V106.663H138.116V92.2812V92.2374H141.97V89.9498H131.859V92.2374ZM87.1565 100.95V101.059L87.0801 100.983L74.6105 88.8552V106.663H77.0236V94.8534L77.1001 94.93L89.5697 107.047V89.9388H87.1565V100.939V100.95ZM91.7753 42.3043L89.1875 48.6307H91.0656L94.1557 42.3043H91.7753ZM148.413 96.5499V92.2593H148.456L154.407 92.2483V89.9607H146.021V106.685H154.418V104.387H148.423V98.8703H154.418V96.5718H148.413V96.5499ZM101.319 80.6352H95.324V75.1187H95.3677L101.319 75.1078V72.8202H95.3131V68.5295H101.308V66.231H92.9218V82.9557H101.319V80.6571V80.6352Z" fill="#1E1E1E"></path></g><defs><clipPath id="clip0_2002_2723"><rect width="187" height="125.336" fill="white"></rect></clipPath></defs></svg> 